<?xml version="1.0" encoding="utf-8"?>
<!-- Generator: Adobe Illustrator 27.0.0, SVG Export Plug-In . SVG Version: 6.00 Build 0)  -->
<svg version="1.1" id="Layer_1" xmlns="http://www.w3.org/2000/svg" xmlns:xlink="http://www.w3.org/1999/xlink" x="0px" y="0px"
	 viewBox="0 0 476.1 476.1" style="enable-background:new 0 0 476.1 476.1;" xml:space="preserve">
<style type="text/css">
	.st0{fill:#212230;stroke:#FAFAFA;stroke-width:20;stroke-miterlimit:10;}
</style>
<path class="st0" d="M238.1,459.5c-59.2,0-114.8-23-156.6-64.9c-41.8-41.8-64.9-97.4-64.9-156.6s23-114.8,64.9-156.6
	s97.5-64.9,156.6-64.9s114.8,23,156.6,64.9s64.9,97.5,64.9,156.6s-23,114.8-64.9,156.6S297.2,459.5,238.1,459.5L238.1,459.5z"/>
<path d="M238.1,17c29.8,0,58.8,5.8,86,17.4c26.3,11.1,50,27.1,70.2,47.4s36.2,43.9,47.4,70.2c11.5,27.3,17.4,56.2,17.4,86
	s-5.8,58.8-17.4,86c-11.1,26.3-27.1,50-47.4,70.2c-20.3,20.3-43.9,36.2-70.2,47.4c-27.3,11.5-56.2,17.4-86,17.4s-58.8-5.8-86-17.4
	c-26.3-11.1-50-27.1-70.2-47.4c-20.3-20.3-36.2-43.9-47.4-70.2c-11.5-27.2-17.4-56.2-17.4-86s5.8-58.8,17.4-86
	c11.1-26.3,27.1-50,47.4-70.2s43.9-36.2,70.2-47.4C179.3,22.9,208.2,17,238.1,17 M238.1,16.1c-122.6,0-221.9,99.4-221.9,221.9
	S115.5,460,238.1,460S460,360.6,460,238.1S360.6,16.1,238.1,16.1L238.1,16.1z"/>
</svg>
