<?xml version="1.0" encoding="UTF-8"?>
<svg id="Layer_1" data-name="Layer 1" xmlns="http://www.w3.org/2000/svg" viewBox="0 0 476.12 476.12">
  <defs>
    <style>
      .cls-1 {
        fill: #212230;
      }
    </style>
  </defs>
  <path class="cls-1" d="M238.06,475.62c-63.45,0-123.11-24.71-167.98-69.58C25.21,361.17,.5,301.52,.5,238.06S25.21,114.95,70.08,70.08C114.95,25.21,174.61,.5,238.06,.5s123.11,24.71,167.98,69.58c44.87,44.87,69.58,104.53,69.58,167.98s-24.71,123.11-69.58,167.98c-44.87,44.87-104.53,69.58-167.98,69.58Z"/>
  <path d="M238.06,1c32,0,63.05,6.27,92.27,18.63,28.23,11.94,53.58,29.03,75.35,50.8,21.77,21.77,38.86,47.12,50.8,75.35,12.36,29.23,18.63,60.27,18.63,92.27s-6.27,63.05-18.63,92.27c-11.94,28.23-29.03,53.58-50.8,75.35-21.77,21.77-47.12,38.86-75.35,50.8-29.23,12.36-60.27,18.63-92.27,18.63s-63.05-6.27-92.27-18.63c-28.23-11.94-53.58-29.03-75.35-50.8-21.77-21.77-38.86-47.12-50.8-75.35C7.27,301.11,1,270.06,1,238.06s6.27-63.05,18.63-92.27c11.94-28.23,29.03-53.58,50.8-75.35,21.77-21.77,47.12-38.86,75.35-50.8C175.01,7.27,206.06,1,238.06,1m0-1C106.58,0,0,106.58,0,238.06s106.58,238.06,238.06,238.06,238.06-106.58,238.06-238.06S369.54,0,238.06,0h0Z"/>
</svg>
